<svg xmlns="http://www.w3.org/2000/svg" xmlns:xlink="http://www.w3.org/1999/xlink" width="150" zoomAndPan="magnify" viewBox="0 0 112.5 112.499997" height="150" preserveAspectRatio="xMidYMid meet" version="1.0"><defs><clipPath id="359f11e473"><path d="M 22.8125 3.542969 L 91.507812 3.542969 L 91.507812 105.835938 L 22.8125 105.835938 Z M 22.8125 3.542969 " clip-rule="nonzero"/></clipPath></defs><g clip-path="url(#359f11e473)"><path fill="#6dd5fa" d="M 22.8125 71.550781 C 22.8125 46.707031 48.96875 30.210938 56.703125 5.417969 C 56.757812 5.238281 57.160156 3.5625 57.160156 3.5625 C 57.160156 3.5625 57.5625 5.238281 57.621094 5.417969 C 65.796875 30.210938 91.507812 46.707031 91.507812 71.550781 C 91.507812 90.476562 76.128906 105.816406 57.160156 105.816406 C 38.191406 105.816406 22.8125 90.476562 22.8125 71.550781 " fill-opacity="1" fill-rule="nonzero"/></g><path fill="#ffffff" d="M 86.589844 72.042969 C 86.589844 86.246094 75.222656 98.003906 60.414062 100.019531 C 73.308594 95.085938 82.464844 82.617188 82.464844 68.015625 C 82.464844 61.3125 80.589844 55.21875 77.699219 49.40625 C 82.742188 56.425781 86.589844 63.660156 86.589844 72.042969 " fill-opacity="1" fill-rule="nonzero"/></svg>