<svg xmlns="http://www.w3.org/2000/svg" xmlns:xlink="http://www.w3.org/1999/xlink" width="150" zoomAndPan="magnify" viewBox="0 0 112.5 112.499997" height="150" preserveAspectRatio="xMidYMid meet" version="1.0"><defs><clipPath id="f9fcab4682"><path d="M 24 5.304688 L 88 5.304688 L 88 22 L 24 22 Z M 24 5.304688 " clip-rule="nonzero"/></clipPath><clipPath id="9d87becb70"><path d="M 24 16 L 88 16 L 88 106.851562 L 24 106.851562 Z M 24 16 " clip-rule="nonzero"/></clipPath><clipPath id="63cfc4c9f4"><path d="M 23.617188 14.167969 L 88.574219 14.167969 L 88.574219 106.789062 L 23.617188 106.789062 Z M 23.617188 14.167969 " clip-rule="nonzero"/></clipPath><clipPath id="37cfdb8a52"><path d="M 23.617188 5.304688 L 88.578125 5.304688 L 88.578125 15 L 23.617188 15 Z M 23.617188 5.304688 " clip-rule="nonzero"/></clipPath><clipPath id="67ff2be1b1"><path d="M 24 5.304688 L 88.578125 5.304688 L 88.578125 15 L 24 15 Z M 24 5.304688 " clip-rule="nonzero"/></clipPath><clipPath id="d8c0077cbd"><path d="M 23.617188 14 L 88.578125 14 L 88.578125 22 L 23.617188 22 Z M 23.617188 14 " clip-rule="nonzero"/></clipPath><clipPath id="bfe1c72e2e"><path d="M 24 14 L 88.578125 14 L 88.578125 22 L 24 22 Z M 24 14 " clip-rule="nonzero"/></clipPath></defs><g clip-path="url(#f9fcab4682)"><path fill="#f0fafd" d="M 37.765625 21.539062 C 33.351562 20.671875 29.773438 19.503906 27.441406 18.160156 C 27.335938 18.097656 27.230469 18.035156 27.132812 17.976562 C 26.234375 17.425781 25.546875 16.847656 25.09375 16.273438 C 24.640625 15.695312 24.421875 15.125 24.421875 14.554688 L 24.421875 14.226562 L 24.398438 14.226562 C 25.027344 9.605469 38.996094 5.894531 56.074219 5.894531 C 73.152344 5.894531 87.117188 9.605469 87.746094 14.226562 L 87.726562 14.226562 L 87.726562 14.554688 C 87.726562 15.125 87.507812 15.695312 87.054688 16.273438 C 86.605469 16.847656 85.917969 17.421875 85.023438 17.972656 C 84.949219 18.015625 84.90625 18.042969 84.886719 18.050781 L 84.875 18.058594 L 84.859375 18.066406 C 83.613281 18.808594 81.984375 19.5 80.046875 20.117188 C 78.378906 20.648438 76.484375 21.125 74.402344 21.535156 C 69.417969 20.828125 63.042969 20.402344 56.097656 20.402344 C 49.136719 20.402344 42.75 20.828125 37.765625 21.539062 " fill-opacity="1" fill-rule="nonzero"/></g><g clip-path="url(#9d87becb70)"><path fill="#f0fafd" d="M 56.089844 106.140625 C 49.136719 106.140625 42.84375 104.53125 38.316406 101.949219 C 36.050781 100.660156 34.226562 99.125 32.976562 97.441406 C 31.726562 95.757812 31.046875 93.925781 31.046875 92.007812 L 31.046875 91.996094 L 24.472656 16.535156 C 24.507812 16.582031 24.542969 16.628906 24.578125 16.675781 C 25.097656 17.335938 25.847656 17.953125 26.789062 18.53125 C 26.898438 18.59375 27.007812 18.660156 27.117188 18.722656 C 29.234375 19.941406 32.257812 20.992188 35.941406 21.820312 C 30.5625 22.726562 27.222656 23.992188 27.222656 25.394531 C 27.222656 25.609375 27.300781 25.820312 27.453125 26.027344 C 27.375 25.988281 27.296875 25.949219 27.222656 25.910156 L 33.039062 90.566406 C 33.039062 97.597656 43.359375 103.292969 56.097656 103.292969 C 68.828125 103.292969 79.15625 97.597656 79.15625 90.566406 L 84.96875 25.824219 C 84.921875 25.851562 84.871094 25.875 84.824219 25.902344 C 84.921875 25.734375 84.96875 25.566406 84.96875 25.394531 C 84.96875 23.992188 81.621094 22.722656 76.226562 21.816406 C 77.671875 21.488281 79.019531 21.128906 80.246094 20.738281 C 82.210938 20.109375 83.875 19.40625 85.183594 18.632812 C 85.265625 18.59375 85.316406 18.554688 85.347656 18.539062 L 85.363281 18.53125 C 86.304688 17.953125 87.050781 17.335938 87.570312 16.675781 C 87.621094 16.605469 87.675781 16.535156 87.722656 16.464844 L 81.144531 91.996094 L 81.144531 92.007812 C 81.144531 93.925781 80.464844 95.757812 79.214844 97.441406 C 77.339844 99.96875 74.175781 102.152344 70.164062 103.691406 C 66.160156 105.234375 61.3125 106.140625 56.097656 106.140625 C 56.09375 106.140625 56.09375 106.140625 56.089844 106.140625 M 56.015625 30.5 C 52.195312 30.5 48.53125 30.328125 45.132812 30.015625 C 48.515625 30.257812 52.214844 30.386719 56.097656 30.386719 C 59.71875 30.386719 63.1875 30.273438 66.386719 30.0625 C 63.132812 30.34375 59.644531 30.5 56.015625 30.5 " fill-opacity="1" fill-rule="nonzero"/></g><g clip-path="url(#63cfc4c9f4)"><path fill="#d6d8da" d="M 56.097656 106.789062 C 50.804688 106.789062 45.882812 105.875 41.792969 104.300781 C 37.699219 102.726562 34.433594 100.492188 32.453125 97.832031 C 31.140625 96.0625 30.398438 94.09375 30.394531 92.023438 L 23.617188 14.226562 L 23.828125 14.226562 C 23.816406 14.335938 23.808594 14.445312 23.808594 14.554688 C 23.808594 15.9375 24.816406 17.253906 26.804688 18.46875 C 26.90625 18.535156 27.019531 18.597656 27.128906 18.664062 C 29.300781 19.914062 32.375 20.972656 36.074219 21.796875 C 36.03125 21.804688 35.984375 21.8125 35.941406 21.820312 C 32.257812 20.992188 29.234375 19.941406 27.117188 18.722656 C 27.007812 18.660156 26.898438 18.59375 26.789062 18.53125 C 25.847656 17.953125 25.097656 17.335938 24.578125 16.675781 C 24.542969 16.628906 24.507812 16.582031 24.472656 16.535156 L 31.046875 91.996094 L 31.046875 92.007812 C 31.046875 93.925781 31.726562 95.757812 32.976562 97.441406 C 34.226562 99.125 36.050781 100.660156 38.316406 101.949219 C 42.84375 104.53125 49.136719 106.140625 56.089844 106.140625 C 56.09375 106.140625 56.09375 106.140625 56.097656 106.140625 C 61.3125 106.140625 66.160156 105.234375 70.164062 103.691406 C 74.175781 102.152344 77.339844 99.96875 79.214844 97.441406 C 80.464844 95.757812 81.144531 93.925781 81.144531 92.007812 L 81.144531 91.996094 L 87.722656 16.464844 C 87.675781 16.535156 87.621094 16.605469 87.570312 16.675781 C 87.050781 17.335938 86.304688 17.953125 85.363281 18.53125 L 85.347656 18.539062 C 85.316406 18.554688 85.265625 18.59375 85.183594 18.632812 C 83.875 19.40625 82.210938 20.109375 80.246094 20.738281 C 79.019531 21.128906 77.671875 21.488281 76.226562 21.816406 C 76.164062 21.804688 76.101562 21.792969 76.039062 21.785156 C 79.863281 20.941406 83.015625 19.851562 85.152344 18.582031 C 85.199219 18.558594 85.242188 18.535156 85.285156 18.507812 L 85.347656 18.46875 C 87.332031 17.253906 88.339844 15.933594 88.339844 14.554688 C 88.339844 14.445312 88.332031 14.335938 88.320312 14.226562 L 88.574219 14.226562 L 81.796875 92.023438 C 81.792969 94.09375 81.054688 96.058594 79.738281 97.832031 C 78.421875 99.605469 76.527344 101.1875 74.199219 102.515625 C 69.546875 105.164062 63.152344 106.789062 56.097656 106.789062 " fill-opacity="1" fill-rule="nonzero"/></g><path fill="#d2d7da" d="M 37.605469 21.558594 C 33.324219 20.710938 29.78125 19.574219 27.433594 18.21875 C 27.324219 18.15625 27.21875 18.097656 27.117188 18.035156 C 25.300781 16.921875 24.378906 15.75 24.378906 14.554688 C 24.378906 14.445312 24.386719 14.335938 24.398438 14.226562 L 24.421875 14.226562 L 24.421875 14.554688 C 24.421875 15.125 24.640625 15.695312 25.09375 16.273438 C 25.546875 16.847656 26.234375 17.425781 27.132812 17.976562 C 27.230469 18.035156 27.335938 18.097656 27.441406 18.160156 C 29.773438 19.503906 33.351562 20.671875 37.765625 21.539062 C 37.710938 21.546875 37.660156 21.550781 37.605469 21.558594 M 74.570312 21.558594 C 74.515625 21.550781 74.457031 21.542969 74.402344 21.535156 C 76.484375 21.125 78.378906 20.648438 80.046875 20.117188 C 81.984375 19.5 83.613281 18.808594 84.859375 18.066406 L 84.875 18.058594 L 84.886719 18.050781 C 84.90625 18.042969 84.949219 18.015625 85.023438 17.972656 C 85.917969 17.421875 86.605469 16.847656 87.054688 16.273438 C 87.507812 15.695312 87.726562 15.125 87.726562 14.554688 L 87.726562 14.226562 L 87.746094 14.226562 C 87.761719 14.335938 87.769531 14.445312 87.769531 14.554688 C 87.769531 15.75 86.847656 16.917969 85.046875 18.027344 L 84.96875 18.070312 C 84.945312 18.085938 84.925781 18.101562 84.871094 18.125 C 82.523438 19.519531 78.933594 20.691406 74.570312 21.558594 " fill-opacity="1" fill-rule="nonzero"/><path fill="#4f9fdd" d="M 84.96875 25.394531 C 84.96875 28.152344 72.042969 30.386719 56.097656 30.386719 C 40.148438 30.386719 27.222656 28.152344 27.222656 25.394531 C 27.222656 22.636719 40.148438 20.402344 56.097656 20.402344 C 72.042969 20.402344 84.96875 22.636719 84.96875 25.394531 " fill-opacity="1" fill-rule="nonzero"/><path fill="#84d8f6" d="M 56.097656 103.292969 C 43.359375 103.292969 33.039062 97.597656 33.039062 90.566406 L 27.222656 25.910156 C 27.296875 25.949219 27.375 25.988281 27.453125 26.027344 C 27.886719 26.621094 28.917969 27.179688 30.4375 27.6875 L 34.976562 77.234375 C 35.097656 78.589844 36.332031 79.617188 37.785156 79.617188 C 37.863281 79.617188 37.945312 79.613281 38.023438 79.609375 C 39.578125 79.488281 40.730469 78.226562 40.597656 76.796875 L 36.222656 29.015625 C 38.792969 29.4375 41.808594 29.78125 45.132812 30.015625 C 48.53125 30.328125 52.195312 30.5 56.015625 30.5 C 59.644531 30.5 63.132812 30.34375 66.386719 30.0625 C 76.375 29.402344 83.707031 27.8125 84.824219 25.902344 C 84.871094 25.875 84.921875 25.851562 84.96875 25.824219 L 79.15625 90.566406 C 79.15625 97.597656 68.828125 103.292969 56.097656 103.292969 " fill-opacity="1" fill-rule="nonzero"/><path fill="#66c6f1" d="M 66.386719 30.0625 C 74.492188 29.355469 81.132812 27.84375 84.824219 25.902344 C 83.707031 27.8125 76.375 29.402344 66.386719 30.0625 M 45.132812 30.015625 C 41.808594 29.78125 38.792969 29.4375 36.222656 29.015625 L 36.199219 28.75 C 38.867188 29.285156 41.878906 29.714844 45.132812 30.015625 M 30.4375 27.6875 C 28.917969 27.179688 27.886719 26.621094 27.453125 26.027344 C 28.296875 26.453125 29.285156 26.859375 30.398438 27.238281 C 30.402344 27.273438 30.40625 27.3125 30.40625 27.351562 L 30.4375 27.6875 " fill-opacity="1" fill-rule="nonzero"/><g clip-path="url(#37cfdb8a52)"><path fill="#d6d8da" d="M 88.21875 14.554688 L 88.21875 14.226562 L 88.03125 14.226562 C 87.417969 9.445312 73.347656 5.632812 56.074219 5.632812 C 38.804688 5.632812 24.726562 9.445312 24.113281 14.226562 L 23.828125 14.226562 C 24.410156 9.234375 38.363281 5.371094 56.074219 5.371094 C 73.78125 5.371094 87.734375 9.234375 88.320312 14.226562 L 88.21875 14.226562 L 88.21875 14.554688 " fill-opacity="1" fill-rule="nonzero"/></g><g clip-path="url(#67ff2be1b1)"><path fill="#d2d7da" d="M 88.03125 14.226562 L 87.746094 14.226562 C 87.117188 9.605469 73.152344 5.894531 56.074219 5.894531 C 38.996094 5.894531 25.027344 9.605469 24.398438 14.226562 L 24.113281 14.226562 C 24.726562 9.445312 38.804688 5.632812 56.074219 5.632812 C 73.347656 5.632812 87.417969 9.445312 88.03125 14.226562 " fill-opacity="1" fill-rule="nonzero"/></g><g clip-path="url(#d8c0077cbd)"><path fill="#cdd0d3" d="M 36.074219 21.796875 C 32.375 20.972656 29.300781 19.914062 27.128906 18.664062 C 27.019531 18.597656 26.90625 18.535156 26.804688 18.46875 C 24.816406 17.253906 23.808594 15.9375 23.808594 14.554688 C 23.808594 14.445312 23.816406 14.335938 23.828125 14.226562 L 24.113281 14.226562 C 24.101562 14.335938 24.09375 14.445312 24.09375 14.554688 C 24.09375 15.871094 25.117188 17.125 26.960938 18.253906 C 27.0625 18.316406 27.171875 18.378906 27.28125 18.441406 C 29.503906 19.722656 32.789062 20.828125 36.820312 21.675781 C 36.566406 21.71875 36.320312 21.757812 36.074219 21.796875 M 76.039062 21.785156 C 75.8125 21.746094 75.582031 21.710938 75.347656 21.671875 C 79.464844 20.804688 82.804688 19.664062 85.027344 18.347656 C 85.082031 18.320312 85.132812 18.285156 85.191406 18.253906 C 87.03125 17.125 88.054688 15.871094 88.054688 14.554688 C 88.054688 14.445312 88.046875 14.335938 88.03125 14.226562 L 88.21875 14.226562 L 88.21875 14.554688 L 88.21875 14.226562 L 88.320312 14.226562 C 88.332031 14.335938 88.339844 14.445312 88.339844 14.554688 C 88.339844 15.933594 87.332031 17.253906 85.347656 18.46875 L 85.285156 18.507812 C 85.242188 18.535156 85.199219 18.558594 85.152344 18.582031 C 83.015625 19.851562 79.863281 20.941406 76.039062 21.785156 " fill-opacity="1" fill-rule="nonzero"/></g><g clip-path="url(#bfe1c72e2e)"><path fill="#cccfd2" d="M 36.820312 21.675781 C 32.789062 20.828125 29.503906 19.722656 27.28125 18.441406 C 27.171875 18.378906 27.0625 18.316406 26.960938 18.253906 C 25.117188 17.125 24.09375 15.871094 24.09375 14.554688 C 24.09375 14.445312 24.101562 14.335938 24.113281 14.226562 L 24.398438 14.226562 C 24.386719 14.335938 24.378906 14.445312 24.378906 14.554688 C 24.378906 15.75 25.300781 16.921875 27.117188 18.035156 C 27.21875 18.097656 27.324219 18.15625 27.433594 18.21875 C 29.78125 19.574219 33.324219 20.710938 37.605469 21.558594 C 37.339844 21.597656 37.078125 21.636719 36.820312 21.675781 M 75.347656 21.671875 C 75.09375 21.632812 74.832031 21.59375 74.570312 21.558594 C 78.933594 20.691406 82.523438 19.519531 84.871094 18.125 C 84.925781 18.101562 84.945312 18.085938 84.96875 18.070312 L 85.046875 18.027344 C 86.847656 16.917969 87.769531 15.75 87.769531 14.554688 C 87.769531 14.445312 87.761719 14.335938 87.746094 14.226562 L 88.03125 14.226562 C 88.046875 14.335938 88.054688 14.445312 88.054688 14.554688 C 88.054688 15.871094 87.03125 17.125 85.191406 18.253906 C 85.132812 18.285156 85.082031 18.320312 85.027344 18.347656 C 82.804688 19.664062 79.464844 20.804688 75.347656 21.671875 " fill-opacity="1" fill-rule="nonzero"/></g><path fill="#a4c7d9" d="M 56.074219 23.734375 C 48.617188 23.734375 41.636719 23.035156 36.074219 21.796875 C 36.320312 21.757812 36.566406 21.71875 36.820312 21.675781 C 37.078125 21.636719 37.339844 21.597656 37.605469 21.558594 C 42.914062 22.609375 49.359375 23.210938 56.074219 23.210938 C 62.816406 23.210938 69.265625 22.609375 74.570312 21.558594 C 74.832031 21.59375 75.09375 21.632812 75.347656 21.671875 C 75.582031 21.710938 75.8125 21.746094 76.039062 21.785156 C 70.449219 23.019531 63.433594 23.734375 56.074219 23.734375 " fill-opacity="1" fill-rule="nonzero"/><path fill="#d1f0fc" d="M 36.199219 28.75 C 34.019531 28.3125 32.066406 27.804688 30.398438 27.238281 C 30.339844 25.851562 31.472656 24.65625 32.980469 24.539062 C 33.0625 24.535156 33.144531 24.53125 33.222656 24.53125 C 34.675781 24.53125 35.90625 25.554688 36.03125 26.914062 L 36.199219 28.75 " fill-opacity="1" fill-rule="nonzero"/><path fill="#e8f8fd" d="M 37.785156 79.617188 C 36.332031 79.617188 35.097656 78.589844 34.976562 77.234375 L 30.4375 27.6875 C 31.929688 28.183594 33.894531 28.636719 36.222656 29.015625 L 40.597656 76.796875 C 40.730469 78.226562 39.578125 79.488281 38.023438 79.609375 C 37.945312 79.613281 37.863281 79.617188 37.785156 79.617188 " fill-opacity="1" fill-rule="nonzero"/><path fill="#dff5fd" d="M 36.222656 29.015625 C 33.894531 28.636719 31.929688 28.183594 30.4375 27.6875 L 30.40625 27.351562 C 30.40625 27.3125 30.402344 27.273438 30.398438 27.238281 C 32.066406 27.804688 34.019531 28.3125 36.199219 28.75 L 36.222656 29.015625 " fill-opacity="1" fill-rule="nonzero"/><path fill="#ffffff" d="M 42.566406 87.027344 C 42.566406 88.769531 41.167969 90.175781 39.4375 90.175781 C 37.710938 90.175781 36.308594 88.769531 36.308594 87.027344 C 36.308594 85.289062 37.710938 83.882812 39.4375 83.882812 C 41.167969 83.882812 42.566406 85.289062 42.566406 87.027344 " fill-opacity="1" fill-rule="nonzero"/></svg>